# xmcd
# 
# Track frame offsets:
#     150
#     17872
#     38507
#     58357
#     73757
#     92242
#     109562
#     134040
#     153860
#     170387
#     190190
#     209875
#     229215
# 
# Disc length: 3262
# 
# Revision: 15
# Processed by: cddbd v1.5.2PL0 Copyright (c) Steve Scherf et al.
# Submitted via: fre:ac v1.0.17
# 
DISCID=bd0cbc0d
DTITLE=The Jeff Healey Band - Get Me Some
DYEAR=2000
DGENRE=Rock
TTITLE0=Which One
TTITLE1=Hey Hey
TTITLE2=Love Is the Answer
TTITLE3=My Life Story
TTITLE4=I Tried
TTITLE5=The Damage Is Done
TTITLE6=Feel Better
TTITLE7=Holding on
TTITLE8=I Should Have Told You
TTITLE9=Macon Georgia Blue
TTITLE10=House Is Burning Down
TTITLE11=Runaway Heart
TTITLE12=Rachel's Song
EXTD=Year: 2000\n\n\n                                                                      The Band :\n                                                                      *************\n\n                                          Jeff Healey  -  Electri
EXTD=c and Acoustic Guitars/Vocal\n\n                                                     Joe Rockman  -  Bass Guitars\n\n                                                           Tom Stephen  -  Drums\n\n\n\n                                               
EXTD=     www.jeffhealey.com\n\n\n                                                           www.jeffhealeyband.com
EXTT0=
EXTT1=
EXTT2=
EXTT3=
EXTT4=
EXTT5=
EXTT6=
EXTT7=
EXTT8=
EXTT9=
EXTT10=
EXTT11=
EXTT12=
PLAYORDER=
